<svg xmlns="http://www.w3.org/2000/svg" viewBox="0 0 40 40"><path fill="#3C5A99" d="M18.991,39.979c-4.425-0.379-7.709-1.551-10.881-3.883C2.962,32.315,0,26.431,0,19.991 C0,10.074,7.004,1.866,16.85,0.245c4.018-0.661,8.469,0.033,12.191,1.902c9.051,4.546,13.188,15.027,9.762,24.736 c-2.352,6.665-8.525,11.745-15.594,12.829C21.818,39.926,19.833,40.052,18.991,39.979z"/><path fill="#FFFFFF" d="M17.153,30h3.64v-9.995h2.728l0.541-3.123h-3.269v-2.263c0-0.729,0.47-1.496,1.144-1.496h1.859V10H21.52 v0.014c-3.563,0.129-4.296,2.193-4.359,4.361h-0.007v2.507h-1.82v3.123h1.82V30z"/></svg>