<svg xmlns="http://www.w3.org/2000/svg" viewBox="0 0 24 24">
  <path fill="#04aef4" d="M17.552 11.201c-.229-.3-.5-.56-.76-.82-.649-.6-1.399-1.03-2.029-1.66-1.461-1.46-1.78-3.87-.85-5.72-.9.23-1.75.75-2.45 1.32-2.54 2.08-3.54 5.75-2.34 8.9.04.1.08.199.08.329 0 .22-.15.421-.35.5-.22.101-.46.04-.64-.12a.83.83 0 0 1-.15-.17c-1.1-1.429-1.28-3.479-.53-5.119-1.64 1.36-2.51 3.66-2.39 5.83.04.5.1 1 .27 1.5.14.6.4 1.199.72 1.729 1.04 1.729 2.87 2.97 4.84 3.22 2.099.27 4.349-.12 5.959-1.6 1.8-1.66 2.449-4.301 1.5-6.599l-.131-.261a5.535 5.535 0 0 0-.779-1.25l.03-.009zm-3.1 6.299c-.279.24-.729.5-1.08.6-1.099.381-2.199-.16-2.879-.82 1.2-.279 1.9-1.159 2.1-2.049.17-.801-.14-1.461-.271-2.23-.12-.74-.1-1.37.2-2.06.15.38.35.76.58 1.06.76 1 1.949 1.439 2.199 2.799.041.14.061.28.061.431.03.819-.32 1.72-.92 2.26l.01.009z"/>
</svg>