<svg xmlns="http://www.w3.org/2000/svg" viewBox="0 0 40 40"><circle fill="#4EB248" cx="20" cy="20" r="20"/><g><path fill="#FFFFFF" d="M32.536,19.496c-0.056,2.424-1.088,4.424-2.672,6.168c-2.345,2.608-5.2,4.576-8.152,6.416c-0.6,0.376-1.216,0.72-1.856,1.016c-0.248,0.112-0.664,0.185-0.832,0.048c-0.168-0.128-0.176-0.544-0.16-0.823c0.024-0.48,0.16-0.944,0.184-1.424c0.04-0.864-0.176-1.104-1.04-1.28c-0.728-0.152-1.472-0.256-2.176-0.473c-3.496-1.048-6.36-2.936-7.8-6.424c-1.48-3.568-0.648-6.928,2.28-9.808c1.936-1.904,4.32-2.984,6.976-3.424c4.184-0.696,8.056,0.088,11.456,2.712c1.696,1.312,2.904,3.008,3.488,5.08C32.424,18,32.432,18.76,32.536,19.496z M19.648,19.04c0.04-0.008,0.088-0.016,0.128-0.024c0.776,1.024,1.56,2.04,2.32,3.072c0.24,0.328,0.561,0.568,0.92,0.353c0.217-0.137,0.4-0.513,0.4-0.784c0.04-1.456,0.016-2.92,0.016-4.384c0-0.6-0.216-0.888-0.664-0.864c-0.527,0.032-0.64,0.384-0.632,0.848c0.017,0.888,0.008,1.784,0.008,2.848c-0.903-1.2-1.695-2.256-2.479-3.312c-0.232-0.312-0.544-0.536-0.872-0.32c-0.224,0.144-0.416,0.504-0.424,0.776c-0.04,1.48-0.016,2.96-0.024,4.44c0,0.464,0.136,0.815,0.664,0.815c0.536,0,0.648-0.368,0.64-0.824C19.64,20.792,19.648,19.912,19.648,19.04z M25.552,17.72c0.608,0,1.168,0,1.721,0c0.447,0,0.775-0.176,0.775-0.648c0.008-0.464-0.304-0.672-0.752-0.672c-0.768,0-1.536,0-2.304,0c-0.521,0-0.769,0.264-0.769,0.792c0.009,1.52,0.009,3.04,0,4.552c0,0.528,0.265,0.768,0.784,0.768c0.752-0.008,1.496-0.008,2.248,0c0.44,0,0.76-0.144,0.8-0.632c0.032-0.416-0.279-0.672-0.808-0.68c-0.552-0.008-1.104,0-1.68,0c0-0.4,0-0.736,0-1.136c0.56,0,1.096-0.008,1.632,0c0.456,0.008,0.815-0.096,0.864-0.616c0.039-0.424-0.297-0.688-0.864-0.688c-0.552-0.008-1.097,0-1.641,0C25.552,18.376,25.552,18.096,25.552,17.72z M13.096,21.2c0-1.376,0-2.696,0-4.016c0-0.448-0.16-0.768-0.648-0.776c-0.48-0.008-0.664,0.312-0.664,0.76c0,1.512-0.008,3.032,0,4.544c0,0.576,0.224,0.776,0.816,0.784c0.728,0.008,1.456,0,2.184,0c0.464,0,0.808-0.128,0.792-0.672c-0.016-0.496-0.336-0.641-0.784-0.632C14.248,21.208,13.696,21.2,13.096,21.2z M17.504,19.408c0-0.728,0-1.464,0-2.192c0-0.472-0.168-0.816-0.68-0.808c-0.472,0.008-0.648,0.336-0.648,0.784c0,1.504,0,3,0,4.504c0,0.464,0.16,0.815,0.68,0.8c0.528-0.008,0.648-0.384,0.648-0.832C17.496,20.912,17.504,20.16,17.504,19.408z"/></g></svg>