<svg xmlns="http://www.w3.org/2000/svg" viewBox="0 0 40 40"><path fill="#BABACA" d="M20 0C8.955 0 0 8.955 0 20s8.955 20 20 20 20-8.955 20-20S31.045 0 20 0zm-2.641 29.943a5.177 5.177 0 01-7.307 0 5.172 5.172 0 010-7.303l5.176-5.175a5.175 5.175 0 017.307 0c.053.053.105.11.159.167a1.38 1.38 0 01.293.347c.008.008.012.016.021.024l-.005.004c.249.47.176 1.062-.22 1.454a1.236 1.236 0 01-1.466.212c-.033.032-.356-.29-.531-.461a2.68 2.68 0 00-3.8-.008l-5.184 5.183a2.693 2.693 0 103.809 3.809l3.118-3.118a4.038 4.038 0 003.45.044l-4.82 4.821zm12.584-12.584l-5.172 5.176a5.176 5.176 0 01-7.306 0c-.054-.054-.106-.11-.159-.167a1.385 1.385 0 01-.29-.348c-.008-.008-.012-.017-.02-.024l.004-.004a1.233 1.233 0 01.22-1.454 1.242 1.242 0 011.465-.211c.033-.033.356.289.531.46a2.677 2.677 0 003.8.008l5.184-5.183a2.69 2.69 0 000-3.809 2.692 2.692 0 00-3.808 0l-3.127 3.119a4.047 4.047 0 00-3.449-.045l4.82-4.821a5.177 5.177 0 017.307 0 5.163 5.163 0 010 7.303z"/><g fill="#FFF"><path d="M18.73 25.078l-3.118 3.118a2.693 2.693 0 11-3.809-3.809l5.184-5.183a2.68 2.68 0 013.8.008c.175.171.498.493.531.461a1.238 1.238 0 001.686-1.666l.005-.004c-.01-.008-.014-.016-.021-.024a1.38 1.38 0 00-.293-.347c-.054-.058-.106-.115-.159-.167a5.175 5.175 0 00-7.307 0l-5.176 5.175a5.172 5.172 0 000 7.303 5.177 5.177 0 007.307 0l4.821-4.821a4.04 4.04 0 01-3.451-.044z"/><path d="M22.637 10.057l-4.82 4.821a4.047 4.047 0 013.449.045l3.127-3.119a2.692 2.692 0 013.808 0 2.69 2.69 0 010 3.809l-5.184 5.183a2.679 2.679 0 01-3.8-.008c-.175-.171-.499-.493-.531-.46a1.244 1.244 0 00-1.465.211 1.232 1.232 0 00-.22 1.454l-.004.004c.008.008.012.017.02.024a1.426 1.426 0 00.29.348c.053.057.105.113.159.167a5.176 5.176 0 007.306 0l5.172-5.176a5.163 5.163 0 000-7.303 5.177 5.177 0 00-7.307 0z"/></g></svg>