<svg xmlns="http://www.w3.org/2000/svg" viewBox="0 0 40 40"><path fill="#BD2026" d="M18.991,39.979c-4.424-0.379-7.708-1.551-10.881-3.883C2.962,32.315,0,26.431,0,19.992C0,10.075,7.004,1.866,16.85,0.245c4.019-0.661,8.469,0.033,12.191,1.902c9.052,4.546,13.188,15.028,9.763,24.736c-2.352,6.664-8.526,11.744-15.595,12.828C21.818,39.927,19.833,40.052,18.991,39.979z"/><path fill="#FFFFFF" d="M20,9.333c-5.891,0-10.667,4.781-10.667,10.678c0,4.396,2.653,8.169,6.443,9.81c-0.027-0.746-0.001-1.633,0.188-2.438c0.207-0.869,1.379-5.84,1.379-5.84S17,20.858,17,19.848c0-1.587,0.921-2.774,2.064-2.774c0.974,0,1.445,0.734,1.445,1.611c0,0.979-0.625,2.445-0.947,3.8c-0.267,1.137,0.572,2.064,1.691,2.064c2.027,0,3.393-2.607,3.393-5.698c0-2.348-1.578-4.106-4.453-4.106c-3.246,0-5.271,2.424-5.271,5.133c0,0.934,0.276,1.593,0.708,2.101c0.198,0.234,0.225,0.33,0.152,0.6c-0.052,0.195-0.167,0.67-0.217,0.859c-0.071,0.271-0.292,0.367-0.536,0.268c-1.495-0.611-2.193-2.25-2.193-4.093c0-3.045,2.565-6.695,7.651-6.695c4.089,0,6.779,2.962,6.779,6.138c0,4.206-2.336,7.346-5.777,7.346c-1.156,0-2.244-0.627-2.614-1.336c0,0-0.624,2.467-0.754,2.945c-0.225,0.814-0.658,1.627-1.059,2.268c0.932,0.268,1.918,0.41,2.938,0.41c5.891,0,10.666-4.781,10.666-10.677C30.666,14.115,25.891,9.333,20,9.333"/></svg>