<svg xmlns="http://www.w3.org/2000/svg" viewBox="0 0 40 40"><path fill="#789" d="M18.991 39.979c-4.424-.379-7.708-1.551-10.881-3.881C2.962 32.314 0 26.432 0 19.991 0 10.074 7.004 1.866 16.85.245c4.019-.661 8.468.033 12.191 1.902 9.052 4.546 13.188 15.027 9.764 24.736-2.353 6.666-8.527 11.744-15.596 12.83-1.391.213-3.376.34-4.218.266z"/><g fill="#FFF"><path d="M13.11 8.332c-.29.115-.563.374-.7.669l-.112.23v7.08h-1.605c-.898 0-1.669.018-1.756.046a.915.915 0 00-.581.48l-.116.23v4.856c0 5.267-.009 5.036.244 5.308.217.236.397.286 1.024.286h.577v-4.75H30.1v4.75h.484c.525 0 .725-.06.932-.286.254-.272.244-.041.244-5.308v-4.856l-.115-.23a.913.913 0 00-.58-.48c-.089-.028-.827-.046-1.667-.046h-1.511V15.02h-2.168l-.005.262v1.107l.005.844H14.462l.013-3.22c.014-2.651.023-3.236.079-3.297.055-.073.35-.078 3.398-.078h3.339V8.24h-3.975c-3.814.004-3.99.01-4.206.092zm-1.683 9.957c.129.129.134.152.134.58 0 .702-.056.757-.752.762-.466 0-.503-.005-.61-.115-.105-.106-.114-.143-.114-.6 0-.724.032-.751.751-.756.443-.005.457 0 .59.13z"/><path d="M22.03 10.656c0 1.647.018 2.445.05 2.565.088.295.36.604.664.76l.272.139 2.412.014c1.328.009 2.412 0 2.412-.023 0-.019-1.305-1.347-2.905-2.942l-2.906-2.906v2.393zM10.832 27.18c.014 3.487.018 3.69.101 3.841.143.273.443.55.71.647.24.092.37.092 8.444.092 9.159 0 8.427.027 8.837-.332.115-.102.258-.273.313-.38l.102-.189.014-3.68.008-3.675h-2.213v2.965c0 2.246-.013 2.98-.055 3.021-.08.078-13.923.078-14.002 0-.041-.04-.055-.775-.055-3.021v-2.965h-2.214l.01 3.676z"/><path d="M14.701 24.178c-.337.281-.3 1.056.06 1.255.134.073.526.078 5.17.091 2.766.01 5.119 0 5.23-.013.402-.06.614-.425.534-.937a.588.588 0 00-.183-.364l-.152-.151H14.844l-.143.119zM14.904 26.627c-.47.125-.604.986-.203 1.324l.143.12H25.34l.144-.12c.323-.267.3-1.024-.037-1.25-.11-.079-.433-.084-5.285-.088-2.841-.005-5.207 0-5.258.014z"/></g></svg>