<svg xmlns="http://www.w3.org/2000/svg" viewBox="0 0 24 24" fill="#04aef4">
	<path d="M8.302 11.812s3.531-.101 4.03.001c.5.102.962.355 1.232 1.062.191.5.093.921-.22 1.451-.383.647-2.852.838-2.852.838l.323.265s.135.188.015.324c-.121.136-.28.132-.559.029-.279-.104-.622-.744-.622-.744s-.136-.21.079-.34c.131-.068 1.813-.184 2.247-.257.434-.072 1.059-.435 1.09-1.041s-.339-.983-.882-1.108c-.544-.125-4.315.028-4.315.028s-1.8.22-1.44 2.888c.079.58 2.232 5.855 5.794 5.792 3.527-.063 4.326-1.928 4.702-2.493.377-.563.801-2.1.675-4.75 0 0 0 1.771-1.128 2.038-1.13.267-2.1-.63-1.71-2.587.201-1.006.467-2.63.467-2.63l-.027-4.472s.092-.896-.815-1.128c-.737-.188-1.052.404-1.114.984s0 4.939 0 4.939-.297.441-.454.081c0 0-.015-5.662-.015-6.648 0-.609-.46-1.608-1.471-1.262-.345.118-.601.654-.603 1.169l-.02 6.834s-.149.188-.274-.039c0 0-.024-5.119-.024-5.354 0-.235-.274-.588-.462-.674-.19-.086-.877-.419-1.436.298-.196.251-.173.658-.173.658l-.038 5.848z"/>
	<path d="M17.385 12.501s.472-1.529-.489-1.795c-.959-.266-1.288.571-1.376.896-.09.325-.372 2.211-.372 2.211s-.247 1.563 1.226 1.464c.568-.037.755-1.094.755-1.241s.256-1.535.256-1.535z"/>
</svg>