<svg xmlns="http://www.w3.org/2000/svg" viewBox="0 0 40 40"><path fill="#439CD6" d="M18.991,39.979c-4.424-0.379-7.708-1.551-10.881-3.881C2.962,32.314,0,26.432,0,19.991C0,10.074,7.004,1.866,16.85,0.245c4.019-0.661,8.469,0.033,12.191,1.902c9.052,4.546,13.188,15.027,9.763,24.736c-2.352,6.666-8.526,11.744-15.595,12.83C21.818,39.926,19.833,40.053,18.991,39.979z"/><path fill="#FFFFFF" d="M30.059,11.718c-0.619,0.397-2.043,0.974-2.744,0.974v0.001c-0.801-0.837-1.93-1.36-3.182-1.36c-2.43,0-4.4,1.971-4.4,4.4c0,0.337,0.039,0.667,0.111,0.982h0c-3.297-0.086-6.902-1.739-9.073-4.567c-1.334,2.31-0.18,4.879,1.335,5.815c-0.519,0.039-1.473-0.06-1.922-0.498c-0.03,1.533,0.707,3.565,3.395,4.302c-0.518,0.277-1.434,0.199-1.833,0.139c0.14,1.295,1.952,2.986,3.934,2.986c-0.707,0.816-3.364,2.299-6.346,1.828c2.025,1.232,4.386,1.945,6.885,1.945c7.1,0,12.614-5.754,12.317-12.853c0-0.008,0-0.016-0.002-0.024c0.002-0.018,0.002-0.037,0.002-0.056c0-0.022-0.002-0.043-0.002-0.064c0.646-0.442,1.514-1.224,2.133-2.253c-0.359,0.198-1.438,0.594-2.439,0.693C28.869,13.761,29.824,12.623,30.059,11.718"/></svg>