<svg xmlns="http://www.w3.org/2000/svg" viewBox="0 0 24 24" fill="#04aef4">
	<path d="M19.876 13.125h-1.23c-.164 1.02-.546 1.945-1.144 2.777l.915.915c.223.211.335.474.335.792 0 .315-.112.586-.335.808-.222.223-.492.335-.808.335-.316 0-.586-.112-.809-.335l-.896-.915c-.843.598-1.769.979-2.777 1.144v1.23c0 .315-.111.582-.335.799-.221.217-.488.325-.799.325-.31 0-.575-.108-.792-.325-.217-.217-.325-.483-.325-.799v-1.23c-1.019-.165-1.944-.546-2.776-1.144l-.932.915c-.211.223-.473.335-.791.335s-.586-.112-.808-.335c-.223-.222-.335-.492-.335-.808 0-.316.112-.581.335-.792l.915-.932c-.586-.831-.96-1.752-1.124-2.759H4.128c-.316 0-.582-.108-.799-.325-.221-.216-.329-.479-.329-.789 0-.31.108-.577.325-.798.217-.224.483-.335.799-.335h1.231c.164-1.009.545-1.935 1.143-2.777l-.932-.915c-.222-.223-.334-.493-.334-.809s.112-.586.334-.808c.223-.222.493-.335.809-.335s.58.113.791.335l.932.931c.843-.597 1.769-.979 2.777-1.142V4.128c0-.305.108-.568.325-.792.218-.223.481-.336.792-.336.31 0 .577.113.798.335.224.222.335.486.335.791v1.231c1.009.164 1.928.54 2.759 1.124l.915-.915c.223-.222.492-.333.809-.333.315 0 .586.111.808.333.223.223.335.493.335.809s-.112.58-.335.791l-.916.932c.598.832.979 1.758 1.144 2.777h1.23c.305 0 .568.111.791.335.224.221.335.488.335.799 0 .31-.111.574-.335.791-.22.218-.484.325-.789.325zM7.5 9.751c0 .281.018.592.053.931.035.341.089.704.159 1.09.07.384.185.708.344.965.157.257.349.386.571.388.27 0 .521-.014.756-.044.235-.029.473-.082.713-.157.241-.078.43-.195.572-.353.142-.159.211-.35.211-.572L7.5 9.751zm2.813 5.624c-.153 0-.285.056-.397.168-.112.109-.167.242-.167.396 0 .152.057.285.167.396.11.109.242.168.397.168h3.375c.152 0 .285-.057.396-.168.111-.109.167-.243.167-.396 0-.152-.057-.285-.167-.396-.109-.11-.242-.168-.396-.168h-3.375zm2.812-3.374c0 .222.07.413.211.571.142.158.331.275.571.353s.478.129.713.158.487.044.757.044c.223 0 .413-.128.571-.388.158-.257.272-.581.344-.965.07-.387.123-.75.157-1.09.035-.339.055-.65.055-.931l-3.379 2.248z"/>
</svg>